<mxfile host="app.diagrams.net" agent="Mozilla/5.0 (Windows NT 10.0; Win64; x64) AppleWebKit/537.36 (KHTML, like Gecko) Chrome/127.0.0.0 Safari/537.36 Edg/127.0.0.0" version="24.7.7">
  <diagram name="Page-1" id="lIZJPkf1PwxQ_07cLMt-">
    <mxGraphModel dx="612" dy="567" grid="1" gridSize="10" guides="1" tooltips="1" connect="1" arrows="1" fold="1" page="1" pageScale="1" pageWidth="850" pageHeight="1100" math="0" shadow="0">
      <root>
        <mxCell id="0" />
        <mxCell id="1" parent="0" />
        <mxCell id="tj_FZoNT2ZGNwC7DBh3O-1" value="New Aplication Infraestructure" style="text;html=1;align=center;verticalAlign=middle;whiteSpace=wrap;rounded=0;" parent="1" vertex="1">
          <mxGeometry width="160" height="40" as="geometry" />
        </mxCell>
        <mxCell id="tj_FZoNT2ZGNwC7DBh3O-3" value="Web Client" style="swimlane;horizontal=0;whiteSpace=wrap;html=1;" parent="1" vertex="1">
          <mxGeometry x="20" y="90" width="80" height="90" as="geometry" />
        </mxCell>
        <mxCell id="tj_FZoNT2ZGNwC7DBh3O-4" value="Mobile Client" style="swimlane;horizontal=0;whiteSpace=wrap;html=1;" parent="1" vertex="1">
          <mxGeometry x="20" y="265" width="80" height="90" as="geometry" />
        </mxCell>
        <mxCell id="tj_FZoNT2ZGNwC7DBh3O-5" value="Desk Client" style="swimlane;horizontal=0;whiteSpace=wrap;html=1;" parent="1" vertex="1">
          <mxGeometry x="20" y="440" width="80" height="90" as="geometry" />
        </mxCell>
        <mxCell id="tj_FZoNT2ZGNwC7DBh3O-6" value="GCP" style="swimlane;whiteSpace=wrap;html=1;" parent="1" vertex="1">
          <mxGeometry x="170" y="40" width="710" height="690" as="geometry" />
        </mxCell>
        <mxCell id="tj_FZoNT2ZGNwC7DBh3O-29" style="edgeStyle=orthogonalEdgeStyle;rounded=0;orthogonalLoop=1;jettySize=auto;html=1;exitX=0.855;exitY=1;exitDx=0;exitDy=-4.35;exitPerimeter=0;entryX=0.75;entryY=0;entryDx=0;entryDy=0;dashed=1;dashPattern=1 4;" parent="tj_FZoNT2ZGNwC7DBh3O-6" source="tj_FZoNT2ZGNwC7DBh3O-7" target="tj_FZoNT2ZGNwC7DBh3O-25" edge="1">
          <mxGeometry relative="1" as="geometry">
            <Array as="points">
              <mxPoint x="631" y="540" />
              <mxPoint x="525" y="540" />
            </Array>
          </mxGeometry>
        </mxCell>
        <mxCell id="tj_FZoNT2ZGNwC7DBh3O-26" style="edgeStyle=orthogonalEdgeStyle;rounded=0;orthogonalLoop=1;jettySize=auto;html=1;exitX=0.5;exitY=1;exitDx=0;exitDy=0;entryX=0;entryY=0;entryDx=0;entryDy=0;dashed=1;dashPattern=1 4;" parent="tj_FZoNT2ZGNwC7DBh3O-6" source="tj_FZoNT2ZGNwC7DBh3O-8" target="tj_FZoNT2ZGNwC7DBh3O-25" edge="1">
          <mxGeometry relative="1" as="geometry" />
        </mxCell>
        <mxCell id="tj_FZoNT2ZGNwC7DBh3O-43" style="edgeStyle=orthogonalEdgeStyle;rounded=0;orthogonalLoop=1;jettySize=auto;html=1;exitX=1;exitY=0.25;exitDx=0;exitDy=0;entryX=0;entryY=0.25;entryDx=0;entryDy=0;dashed=1;" parent="tj_FZoNT2ZGNwC7DBh3O-6" source="tj_FZoNT2ZGNwC7DBh3O-8" target="tj_FZoNT2ZGNwC7DBh3O-12" edge="1">
          <mxGeometry relative="1" as="geometry" />
        </mxCell>
        <mxCell id="tj_FZoNT2ZGNwC7DBh3O-51" style="edgeStyle=orthogonalEdgeStyle;rounded=0;orthogonalLoop=1;jettySize=auto;html=1;exitX=0;exitY=0.75;exitDx=0;exitDy=0;dashed=1;" parent="tj_FZoNT2ZGNwC7DBh3O-6" source="tj_FZoNT2ZGNwC7DBh3O-8" edge="1">
          <mxGeometry relative="1" as="geometry">
            <mxPoint x="-70" y="460" as="targetPoint" />
            <Array as="points">
              <mxPoint x="30" y="460" />
              <mxPoint x="-20" y="460" />
              <mxPoint x="-70" y="461" />
            </Array>
          </mxGeometry>
        </mxCell>
        <mxCell id="tj_FZoNT2ZGNwC7DBh3O-8" value="API Gateway" style="swimlane;horizontal=0;whiteSpace=wrap;html=1;" parent="tj_FZoNT2ZGNwC7DBh3O-6" vertex="1">
          <mxGeometry x="30" y="30" width="80" height="480" as="geometry" />
        </mxCell>
        <mxCell id="tj_FZoNT2ZGNwC7DBh3O-27" style="edgeStyle=orthogonalEdgeStyle;rounded=0;orthogonalLoop=1;jettySize=auto;html=1;exitX=0.5;exitY=1;exitDx=0;exitDy=0;entryX=0.25;entryY=0;entryDx=0;entryDy=0;dashed=1;dashPattern=1 4;" parent="tj_FZoNT2ZGNwC7DBh3O-6" source="tj_FZoNT2ZGNwC7DBh3O-12" target="tj_FZoNT2ZGNwC7DBh3O-25" edge="1">
          <mxGeometry relative="1" as="geometry" />
        </mxCell>
        <mxCell id="tj_FZoNT2ZGNwC7DBh3O-44" style="edgeStyle=orthogonalEdgeStyle;rounded=0;orthogonalLoop=1;jettySize=auto;html=1;exitX=0;exitY=0.75;exitDx=0;exitDy=0;entryX=1;entryY=0.75;entryDx=0;entryDy=0;dashed=1;" parent="tj_FZoNT2ZGNwC7DBh3O-6" source="tj_FZoNT2ZGNwC7DBh3O-12" target="tj_FZoNT2ZGNwC7DBh3O-8" edge="1">
          <mxGeometry relative="1" as="geometry" />
        </mxCell>
        <mxCell id="tj_FZoNT2ZGNwC7DBh3O-12" value="Broker" style="swimlane;horizontal=0;whiteSpace=wrap;html=1;" parent="tj_FZoNT2ZGNwC7DBh3O-6" vertex="1">
          <mxGeometry x="150" y="30" width="70" height="480" as="geometry" />
        </mxCell>
        <mxCell id="tj_FZoNT2ZGNwC7DBh3O-28" style="edgeStyle=orthogonalEdgeStyle;rounded=0;orthogonalLoop=1;jettySize=auto;html=1;exitX=0.5;exitY=1;exitDx=0;exitDy=0;entryX=0.5;entryY=0;entryDx=0;entryDy=0;dashed=1;dashPattern=1 4;" parent="tj_FZoNT2ZGNwC7DBh3O-6" source="tj_FZoNT2ZGNwC7DBh3O-14" target="tj_FZoNT2ZGNwC7DBh3O-25" edge="1">
          <mxGeometry relative="1" as="geometry" />
        </mxCell>
        <mxCell id="tj_FZoNT2ZGNwC7DBh3O-14" value="Kubernetes" style="swimlane;whiteSpace=wrap;html=1;" parent="tj_FZoNT2ZGNwC7DBh3O-6" vertex="1">
          <mxGeometry x="255" y="30" width="445" height="480" as="geometry" />
        </mxCell>
        <mxCell id="tj_FZoNT2ZGNwC7DBh3O-15" value="&amp;nbsp;Containers" style="swimlane;horizontal=0;whiteSpace=wrap;html=1;" parent="tj_FZoNT2ZGNwC7DBh3O-14" vertex="1">
          <mxGeometry x="25" y="80" width="195" height="370" as="geometry" />
        </mxCell>
        <mxCell id="tj_FZoNT2ZGNwC7DBh3O-18" value="Backend" style="swimlane;fontStyle=0;childLayout=stackLayout;horizontal=1;startSize=30;horizontalStack=0;resizeParent=1;resizeParentMax=0;resizeLast=0;collapsible=1;marginBottom=0;whiteSpace=wrap;html=1;flipV=0;" parent="tj_FZoNT2ZGNwC7DBh3O-15" vertex="1">
          <mxGeometry x="60" y="30" width="120" height="330" as="geometry" />
        </mxCell>
        <mxCell id="tj_FZoNT2ZGNwC7DBh3O-38" style="text;strokeColor=none;fillColor=none;align=left;verticalAlign=middle;spacingLeft=4;spacingRight=4;overflow=hidden;points=[[0,0.5],[1,0.5]];portConstraint=eastwest;rotatable=0;whiteSpace=wrap;html=1;" parent="tj_FZoNT2ZGNwC7DBh3O-18" vertex="1">
          <mxGeometry y="30" width="120" height="30" as="geometry" />
        </mxCell>
        <mxCell id="tj_FZoNT2ZGNwC7DBh3O-37" style="text;strokeColor=none;fillColor=none;align=left;verticalAlign=middle;spacingLeft=4;spacingRight=4;overflow=hidden;points=[[0,0.5],[1,0.5]];portConstraint=eastwest;rotatable=0;whiteSpace=wrap;html=1;" parent="tj_FZoNT2ZGNwC7DBh3O-18" vertex="1">
          <mxGeometry y="60" width="120" height="30" as="geometry" />
        </mxCell>
        <mxCell id="tj_FZoNT2ZGNwC7DBh3O-36" style="text;strokeColor=none;fillColor=none;align=left;verticalAlign=middle;spacingLeft=4;spacingRight=4;overflow=hidden;points=[[0,0.5],[1,0.5]];portConstraint=eastwest;rotatable=0;whiteSpace=wrap;html=1;" parent="tj_FZoNT2ZGNwC7DBh3O-18" vertex="1">
          <mxGeometry y="90" width="120" height="30" as="geometry" />
        </mxCell>
        <mxCell id="tj_FZoNT2ZGNwC7DBh3O-35" style="text;strokeColor=none;fillColor=none;align=left;verticalAlign=middle;spacingLeft=4;spacingRight=4;overflow=hidden;points=[[0,0.5],[1,0.5]];portConstraint=eastwest;rotatable=0;whiteSpace=wrap;html=1;" parent="tj_FZoNT2ZGNwC7DBh3O-18" vertex="1">
          <mxGeometry y="120" width="120" height="30" as="geometry" />
        </mxCell>
        <mxCell id="tj_FZoNT2ZGNwC7DBh3O-34" style="text;strokeColor=none;fillColor=none;align=left;verticalAlign=middle;spacingLeft=4;spacingRight=4;overflow=hidden;points=[[0,0.5],[1,0.5]];portConstraint=eastwest;rotatable=0;whiteSpace=wrap;html=1;" parent="tj_FZoNT2ZGNwC7DBh3O-18" vertex="1">
          <mxGeometry y="150" width="120" height="30" as="geometry" />
        </mxCell>
        <mxCell id="tj_FZoNT2ZGNwC7DBh3O-33" style="text;strokeColor=none;fillColor=none;align=left;verticalAlign=middle;spacingLeft=4;spacingRight=4;overflow=hidden;points=[[0,0.5],[1,0.5]];portConstraint=eastwest;rotatable=0;whiteSpace=wrap;html=1;" parent="tj_FZoNT2ZGNwC7DBh3O-18" vertex="1">
          <mxGeometry y="180" width="120" height="30" as="geometry" />
        </mxCell>
        <mxCell id="tj_FZoNT2ZGNwC7DBh3O-32" style="text;strokeColor=none;fillColor=none;align=left;verticalAlign=middle;spacingLeft=4;spacingRight=4;overflow=hidden;points=[[0,0.5],[1,0.5]];portConstraint=eastwest;rotatable=0;whiteSpace=wrap;html=1;" parent="tj_FZoNT2ZGNwC7DBh3O-18" vertex="1">
          <mxGeometry y="210" width="120" height="30" as="geometry" />
        </mxCell>
        <mxCell id="tj_FZoNT2ZGNwC7DBh3O-19" value="Item 1" style="text;strokeColor=none;fillColor=none;align=left;verticalAlign=middle;spacingLeft=4;spacingRight=4;overflow=hidden;points=[[0,0.5],[1,0.5]];portConstraint=eastwest;rotatable=0;whiteSpace=wrap;html=1;" parent="tj_FZoNT2ZGNwC7DBh3O-18" vertex="1">
          <mxGeometry y="240" width="120" height="30" as="geometry" />
        </mxCell>
        <mxCell id="tj_FZoNT2ZGNwC7DBh3O-20" value="Item 2" style="text;strokeColor=none;fillColor=none;align=left;verticalAlign=middle;spacingLeft=4;spacingRight=4;overflow=hidden;points=[[0,0.5],[1,0.5]];portConstraint=eastwest;rotatable=0;whiteSpace=wrap;html=1;" parent="tj_FZoNT2ZGNwC7DBh3O-18" vertex="1">
          <mxGeometry y="270" width="120" height="30" as="geometry" />
        </mxCell>
        <mxCell id="tj_FZoNT2ZGNwC7DBh3O-21" value="Item 3" style="text;strokeColor=none;fillColor=none;align=left;verticalAlign=middle;spacingLeft=4;spacingRight=4;overflow=hidden;points=[[0,0.5],[1,0.5]];portConstraint=eastwest;rotatable=0;whiteSpace=wrap;html=1;" parent="tj_FZoNT2ZGNwC7DBh3O-18" vertex="1">
          <mxGeometry y="300" width="120" height="30" as="geometry" />
        </mxCell>
        <mxCell id="6UJkM634Ec5mFkQB_tX1-1" value="&amp;nbsp;Containers" style="swimlane;horizontal=0;whiteSpace=wrap;html=1;" vertex="1" parent="tj_FZoNT2ZGNwC7DBh3O-14">
          <mxGeometry x="235" y="80" width="195" height="370" as="geometry" />
        </mxCell>
        <mxCell id="tj_FZoNT2ZGNwC7DBh3O-7" value="BD" style="shape=cylinder3;whiteSpace=wrap;html=1;boundedLbl=1;backgroundOutline=1;size=15;" parent="6UJkM634Ec5mFkQB_tX1-1" vertex="1">
          <mxGeometry x="90" y="50" width="60" height="80" as="geometry" />
        </mxCell>
        <mxCell id="tj_FZoNT2ZGNwC7DBh3O-24" style="edgeStyle=orthogonalEdgeStyle;rounded=0;orthogonalLoop=1;jettySize=auto;html=1;exitX=1;exitY=0.5;exitDx=0;exitDy=0;entryX=0.145;entryY=1;entryDx=0;entryDy=-4.35;entryPerimeter=0;dashed=1;" parent="tj_FZoNT2ZGNwC7DBh3O-14" source="tj_FZoNT2ZGNwC7DBh3O-34" target="tj_FZoNT2ZGNwC7DBh3O-7" edge="1">
          <mxGeometry relative="1" as="geometry" />
        </mxCell>
        <mxCell id="tj_FZoNT2ZGNwC7DBh3O-30" style="edgeStyle=orthogonalEdgeStyle;rounded=0;orthogonalLoop=1;jettySize=auto;html=1;exitX=0.5;exitY=1;exitDx=0;exitDy=0;exitPerimeter=0;entryX=1;entryY=0.5;entryDx=0;entryDy=0;dashed=1;" parent="tj_FZoNT2ZGNwC7DBh3O-14" source="tj_FZoNT2ZGNwC7DBh3O-7" target="tj_FZoNT2ZGNwC7DBh3O-33" edge="1">
          <mxGeometry relative="1" as="geometry" />
        </mxCell>
        <mxCell id="tj_FZoNT2ZGNwC7DBh3O-25" value="Logs" style="swimlane;whiteSpace=wrap;html=1;" parent="tj_FZoNT2ZGNwC7DBh3O-6" vertex="1">
          <mxGeometry x="30" y="560" width="660" height="100" as="geometry" />
        </mxCell>
        <mxCell id="tj_FZoNT2ZGNwC7DBh3O-42" style="edgeStyle=orthogonalEdgeStyle;rounded=0;orthogonalLoop=1;jettySize=auto;html=1;exitX=0;exitY=0.5;exitDx=0;exitDy=0;entryX=1;entryY=0.75;entryDx=0;entryDy=0;dashed=1;" parent="tj_FZoNT2ZGNwC7DBh3O-6" source="tj_FZoNT2ZGNwC7DBh3O-20" target="tj_FZoNT2ZGNwC7DBh3O-12" edge="1">
          <mxGeometry relative="1" as="geometry">
            <Array as="points">
              <mxPoint x="340" y="390" />
            </Array>
          </mxGeometry>
        </mxCell>
        <mxCell id="tj_FZoNT2ZGNwC7DBh3O-41" style="edgeStyle=orthogonalEdgeStyle;rounded=0;orthogonalLoop=1;jettySize=auto;html=1;exitX=1;exitY=0.25;exitDx=0;exitDy=0;entryX=0;entryY=0.5;entryDx=0;entryDy=0;dashed=1;" parent="tj_FZoNT2ZGNwC7DBh3O-6" source="tj_FZoNT2ZGNwC7DBh3O-12" target="tj_FZoNT2ZGNwC7DBh3O-37" edge="1">
          <mxGeometry relative="1" as="geometry">
            <Array as="points">
              <mxPoint x="220" y="215" />
            </Array>
          </mxGeometry>
        </mxCell>
        <mxCell id="tj_FZoNT2ZGNwC7DBh3O-46" style="edgeStyle=orthogonalEdgeStyle;rounded=0;orthogonalLoop=1;jettySize=auto;html=1;exitX=0;exitY=0;exitDx=0;exitDy=0;entryX=1;entryY=0.5;entryDx=0;entryDy=0;dashed=1;" parent="1" source="tj_FZoNT2ZGNwC7DBh3O-8" target="tj_FZoNT2ZGNwC7DBh3O-3" edge="1">
          <mxGeometry relative="1" as="geometry">
            <Array as="points">
              <mxPoint x="200" y="135" />
            </Array>
          </mxGeometry>
        </mxCell>
        <mxCell id="tj_FZoNT2ZGNwC7DBh3O-47" style="edgeStyle=orthogonalEdgeStyle;rounded=0;orthogonalLoop=1;jettySize=auto;html=1;exitX=1;exitY=0.75;exitDx=0;exitDy=0;entryX=-0.025;entryY=0.182;entryDx=0;entryDy=0;entryPerimeter=0;dashed=1;" parent="1" source="tj_FZoNT2ZGNwC7DBh3O-3" target="tj_FZoNT2ZGNwC7DBh3O-8" edge="1">
          <mxGeometry relative="1" as="geometry" />
        </mxCell>
        <mxCell id="tj_FZoNT2ZGNwC7DBh3O-48" style="edgeStyle=orthogonalEdgeStyle;rounded=0;orthogonalLoop=1;jettySize=auto;html=1;exitX=1;exitY=0.25;exitDx=0;exitDy=0;entryX=0.025;entryY=0.451;entryDx=0;entryDy=0;entryPerimeter=0;dashed=1;" parent="1" source="tj_FZoNT2ZGNwC7DBh3O-4" target="tj_FZoNT2ZGNwC7DBh3O-8" edge="1">
          <mxGeometry relative="1" as="geometry" />
        </mxCell>
        <mxCell id="tj_FZoNT2ZGNwC7DBh3O-49" style="edgeStyle=orthogonalEdgeStyle;rounded=0;orthogonalLoop=1;jettySize=auto;html=1;exitX=0;exitY=0.5;exitDx=0;exitDy=0;entryX=1;entryY=0.5;entryDx=0;entryDy=0;dashed=1;" parent="1" source="tj_FZoNT2ZGNwC7DBh3O-8" target="tj_FZoNT2ZGNwC7DBh3O-4" edge="1">
          <mxGeometry relative="1" as="geometry" />
        </mxCell>
        <mxCell id="tj_FZoNT2ZGNwC7DBh3O-50" style="edgeStyle=orthogonalEdgeStyle;rounded=0;orthogonalLoop=1;jettySize=auto;html=1;exitX=1;exitY=0.25;exitDx=0;exitDy=0;entryX=0.013;entryY=0.819;entryDx=0;entryDy=0;entryPerimeter=0;dashed=1;" parent="1" source="tj_FZoNT2ZGNwC7DBh3O-5" target="tj_FZoNT2ZGNwC7DBh3O-8" edge="1">
          <mxGeometry relative="1" as="geometry" />
        </mxCell>
        <mxCell id="tj_FZoNT2ZGNwC7DBh3O-52" value="New Aplication&lt;div&gt;Deploy&lt;/div&gt;" style="text;html=1;align=center;verticalAlign=middle;whiteSpace=wrap;rounded=0;" parent="1" vertex="1">
          <mxGeometry x="10" y="840" width="110" height="30" as="geometry" />
        </mxCell>
        <mxCell id="tj_FZoNT2ZGNwC7DBh3O-53" value="CI/CD App Deploy" style="swimlane;whiteSpace=wrap;html=1;" parent="1" vertex="1">
          <mxGeometry x="40" y="880" width="720" height="600" as="geometry" />
        </mxCell>
        <mxCell id="tj_FZoNT2ZGNwC7DBh3O-58" value="GIT" style="swimlane;whiteSpace=wrap;html=1;" parent="tj_FZoNT2ZGNwC7DBh3O-53" vertex="1">
          <mxGeometry x="20" y="40" width="200" height="540" as="geometry" />
        </mxCell>
        <mxCell id="tj_FZoNT2ZGNwC7DBh3O-70" value="branch Dev" style="rounded=0;whiteSpace=wrap;html=1;" parent="tj_FZoNT2ZGNwC7DBh3O-58" vertex="1">
          <mxGeometry x="40" y="60" width="120" height="60" as="geometry" />
        </mxCell>
        <mxCell id="tj_FZoNT2ZGNwC7DBh3O-71" value="Branch Dev" style="rounded=0;whiteSpace=wrap;html=1;" parent="tj_FZoNT2ZGNwC7DBh3O-58" vertex="1">
          <mxGeometry x="40" y="180" width="120" height="60" as="geometry" />
        </mxCell>
        <mxCell id="tj_FZoNT2ZGNwC7DBh3O-72" value="Branch Int" style="rounded=0;whiteSpace=wrap;html=1;" parent="tj_FZoNT2ZGNwC7DBh3O-58" vertex="1">
          <mxGeometry x="40" y="310" width="120" height="60" as="geometry" />
        </mxCell>
        <mxCell id="tj_FZoNT2ZGNwC7DBh3O-73" value="Branch Prod" style="rounded=0;whiteSpace=wrap;html=1;" parent="tj_FZoNT2ZGNwC7DBh3O-58" vertex="1">
          <mxGeometry x="40" y="420" width="120" height="60" as="geometry" />
        </mxCell>
        <mxCell id="tj_FZoNT2ZGNwC7DBh3O-59" value="Jenkins" style="swimlane;whiteSpace=wrap;html=1;" parent="tj_FZoNT2ZGNwC7DBh3O-53" vertex="1">
          <mxGeometry x="250" y="40" width="200" height="540" as="geometry" />
        </mxCell>
        <mxCell id="tj_FZoNT2ZGNwC7DBh3O-66" value="Run Job Dev" style="rounded=0;whiteSpace=wrap;html=1;" parent="tj_FZoNT2ZGNwC7DBh3O-59" vertex="1">
          <mxGeometry x="40" y="60" width="120" height="60" as="geometry" />
        </mxCell>
        <mxCell id="tj_FZoNT2ZGNwC7DBh3O-67" value="Run Job Test" style="rounded=0;whiteSpace=wrap;html=1;" parent="tj_FZoNT2ZGNwC7DBh3O-59" vertex="1">
          <mxGeometry x="40" y="180" width="120" height="60" as="geometry" />
        </mxCell>
        <mxCell id="tj_FZoNT2ZGNwC7DBh3O-68" value="Run Job Int" style="rounded=0;whiteSpace=wrap;html=1;" parent="tj_FZoNT2ZGNwC7DBh3O-59" vertex="1">
          <mxGeometry x="40" y="310" width="120" height="60" as="geometry" />
        </mxCell>
        <mxCell id="tj_FZoNT2ZGNwC7DBh3O-69" value="Run Job Prod" style="rounded=0;whiteSpace=wrap;html=1;" parent="tj_FZoNT2ZGNwC7DBh3O-59" vertex="1">
          <mxGeometry x="40" y="440" width="120" height="60" as="geometry" />
        </mxCell>
        <mxCell id="tj_FZoNT2ZGNwC7DBh3O-60" value="Enviroment" style="swimlane;whiteSpace=wrap;html=1;" parent="tj_FZoNT2ZGNwC7DBh3O-53" vertex="1">
          <mxGeometry x="480" y="40" width="200" height="540" as="geometry" />
        </mxCell>
        <mxCell id="tj_FZoNT2ZGNwC7DBh3O-61" value="Develop" style="rounded=0;whiteSpace=wrap;html=1;" parent="tj_FZoNT2ZGNwC7DBh3O-60" vertex="1">
          <mxGeometry x="40" y="60" width="120" height="60" as="geometry" />
        </mxCell>
        <mxCell id="tj_FZoNT2ZGNwC7DBh3O-62" value="Test" style="rounded=0;whiteSpace=wrap;html=1;" parent="tj_FZoNT2ZGNwC7DBh3O-60" vertex="1">
          <mxGeometry x="40" y="180" width="120" height="60" as="geometry" />
        </mxCell>
        <mxCell id="tj_FZoNT2ZGNwC7DBh3O-63" value="Integration and Preproduction" style="rounded=0;whiteSpace=wrap;html=1;" parent="tj_FZoNT2ZGNwC7DBh3O-60" vertex="1">
          <mxGeometry x="40" y="310" width="120" height="60" as="geometry" />
        </mxCell>
        <mxCell id="tj_FZoNT2ZGNwC7DBh3O-64" value="Production" style="rounded=0;whiteSpace=wrap;html=1;" parent="tj_FZoNT2ZGNwC7DBh3O-60" vertex="1">
          <mxGeometry x="40" y="440" width="120" height="60" as="geometry" />
        </mxCell>
        <mxCell id="tj_FZoNT2ZGNwC7DBh3O-55" value="BD Deploy" style="swimlane;whiteSpace=wrap;html=1;" parent="1" vertex="1">
          <mxGeometry x="790" y="880" width="210" height="600" as="geometry" />
        </mxCell>
        <mxCell id="tj_FZoNT2ZGNwC7DBh3O-56" style="edgeStyle=orthogonalEdgeStyle;rounded=0;orthogonalLoop=1;jettySize=auto;html=1;exitX=0.75;exitY=0;exitDx=0;exitDy=0;entryX=0.929;entryY=0.006;entryDx=0;entryDy=0;entryPerimeter=0;" parent="1" source="tj_FZoNT2ZGNwC7DBh3O-55" target="tj_FZoNT2ZGNwC7DBh3O-55" edge="1">
          <mxGeometry relative="1" as="geometry" />
        </mxCell>
      </root>
    </mxGraphModel>
  </diagram>
</mxfile>
